<svg width="1440" height="128" xmlns="http://www.w3.org/2000/svg" stroke="null">
 <g stroke="null">
  <title stroke="null">Layer 1</title>
  <path id="svg_9" d="m197.015,362.68l0,-1.49l1.49,1.49l-1.49,0z" fill="none" stroke="#000"/>
  <path id="svg_10" d="m434.82,466.16l0,-1.49l1.49,1.49l-1.49,0z" fill="none" stroke="#000"/>
  <path id="svg_11" d="m195.025,442.28l0,-1.49l1.49,1.49l-1.49,0z" fill="none" stroke="#000"/>
  <path id="svg_12" d="m234.825,474.12l0,-1.49l1.49,1.49l-1.49,0z" fill="none" stroke="#000"/>
  <path id="svg_13" d="m131.345,405.465l0,-1.49l1.49,1.49l-1.49,0z" fill="none" stroke="#000"/>
  <path id="svg_15" d="m376.115,446.16687l0.745,-1.30375l0.745,1.30375l-1.49,0z" fill="none" stroke="#000"/>
  <path id="svg_16" d="m517.405,320.79687l0.745,-1.30375l0.745,1.30375l-1.49,0z" fill="none" stroke="#000"/>
  <path id="svg_17" d="m563.175,249.15688l0.745,-1.30375l0.745,1.30375l-1.49,0z" fill="none" stroke="#000"/>
  <path id="svg_18" d="m483.575,413.33187l0.745,-1.30375l0.745,1.30375l-1.49,0z" fill="none" stroke="#000"/>
  <path id="svg_19" d="m548.25,492.93187l0.745,-1.30375l0.745,1.30375l-1.49,0z" fill="none" stroke="#000"/>
  <path id="svg_20" d="m858.69,457.11187l0.745,-1.30375l0.745,1.30375l-1.49,0z" fill="none" stroke="#000"/>
  <path id="svg_22" d="m204,445c397.76471,112.76471 254,753 202,303" opacity="NaN" fill="none" stroke="#000"/>
  <path id="svg_23" d="m323.38,327.76187l0.745,-1.30375l0.745,1.30375l-1.49,0z" fill="none" stroke="#000"/>
  <path id="svg_24" d="m318.405,184.48188l0.745,-1.30375l0.745,1.30375l-1.49,0z" fill="none" stroke="#000"/>
  <path stroke="#ffffff" fill="url(#svg_34)" d="m1440.80727,0l0,93.99992l-1368.90741,-93.99992l1368.90741,0z" id="svg_1" stroke-width="0"/>
  <path stroke="#ffffff" fill="url(#svg_26)" d="m0,0l0,98.99994l1144.41367,-98.99994l-1144.41367,0z" id="svg_3" stroke-dasharray="2,2" stroke-width="0"/>
 </g>
 <defs stroke="null">
  <linearGradient id="svg_26" x1="0" y1="0" x2="1" y2="0" spreadMethod="pad">
   <stop stop-color="#086cab" stop-opacity="0.99609" offset="0"/>
   <stop stop-color="#07a182" stop-opacity="0.99609" offset="1"/>
   <stop stop-color="#f85e7d" offset="1"/>
   <stop stop-color="0" stop-opacity="0" offset="NaN"/>
   <stop stop-color="0" stop-opacity="0" offset="NaN"/>
  </linearGradient>
  <linearGradient id="svg_34" x1="0" y1="0" x2="1" y2="0">
   <stop stop-color="#068e9b" stop-opacity="0.99609" offset="0"/>
   <stop stop-color="#03c180" stop-opacity="0.99609" offset="0.60156"/>
  </linearGradient>
 </defs>
</svg>